<svg id="logo_拷贝" data-name="logo 拷贝" xmlns="http://www.w3.org/2000/svg" width="300.188" height="30.25" viewBox="0 0 300.188 30.25">
  <defs>
    <style>
      .cls-1 {
        fill: #fff;
      }

      .cls-1, .cls-2 {
        fill-rule: evenodd;
      }

      .cls-2 {
        fill: #d4101a;
      }
    </style>
  </defs>
  <path id="形状_2_拷贝" data-name="形状 2 拷贝" class="cls-1" d="M235.333,8080.62h-8.98q-5.931,0-8.96-2.93c-4.119-3.99-4.12-11.87,0-15.86q3.033-2.94,8.963-2.94h9.715v4.59h-9.715a13.869,13.869,0,0,0-2.941.27,5.582,5.582,0,0,0-1.929.77h0c-3.184,2.15-3.286,8.28-.02,10.32l0.01,0.01,0.044,0.03a5.151,5.151,0,0,0,1.91.85,12.469,12.469,0,0,0,2.929.3h9.715v4.59h-0.735Zm-22.981,0h-8.986c-7.068,0-10.287-1.69-10.287-9.27v-12.46h20.009v4.59H197.829v3.76h14.4v4.46h-14.4c0,3.58,1.637,4.33,5.534,4.33h9.722v4.59h-0.736Zm-32.318,0h-5.872l-13.757-28.46H167.4l9.787,20.03,9.623-20.03h6.99Zm95.385,0h-1.352a9.713,9.713,0,0,1-9.681-9.69v-0.57h4.586a5.885,5.885,0,0,0,5.864,5.67h0.583v4.59Zm12.235-10.26v0.57a9.714,9.714,0,0,1-9.681,9.69H276.62v-4.59H277.2a5.885,5.885,0,0,0,5.865-5.67h4.586Zm-11.034-11.47h1.353a9.714,9.714,0,0,1,9.681,9.69v0.57h-4.586a5.885,5.885,0,0,0-5.865-5.67H276.62v-4.59Zm-2.553,0h1.352v4.59h-0.583a5.885,5.885,0,0,0-5.864,5.67h-4.586v-0.57A9.713,9.713,0,0,1,274.067,8058.89Zm35.865,10.74a7.559,7.559,0,0,1-3.891,3.27l3.276,6.66,0.526,1.06H304.5l-0.2-.41-3.2-6.53h-6.255v6.94H290.09v-11.53h11.857a5.207,5.207,0,0,0,2.758-.67h0a2.346,2.346,0,0,0,0-4.27h0a5.207,5.207,0,0,0-2.758-.67H290.09v-4.59h11.857a11.22,11.22,0,0,1,2.79.35,8.036,8.036,0,0,1,5.2,3.7A6.771,6.771,0,0,1,309.932,8069.63Zm-48.718-6.15h-8.531v17.14h-4.75v-17.14h-9.272v-4.59h23.288v4.59h-0.735Zm141.062,17.14h-4.161v-21.73h4.9v21.73h-0.736Zm-7.871-17.14h-8.53v17.14h-4.751v-17.14h-9.272v-4.59H395.14v4.59h-0.735Zm-25.019,6.15a8.075,8.075,0,0,1-5.2,3.7,11.218,11.218,0,0,1-2.789.35h-7.107v6.94h-4.751v-11.53H361.4a5.211,5.211,0,0,0,2.758-.67h0a2.346,2.346,0,0,0,0-4.27h0a5.211,5.211,0,0,0-2.758-.67H349.543v-4.59H361.4a11.218,11.218,0,0,1,2.789.35,8.036,8.036,0,0,1,5.2,3.7A6.771,6.771,0,0,1,369.386,8069.63Zm57.866,10.99h-8.98q-5.929,0-8.96-2.93c-4.118-3.99-4.12-11.87,0-15.86q3.033-2.94,8.963-2.94h9.716v4.59h-9.716a13.866,13.866,0,0,0-2.94.27,5.587,5.587,0,0,0-1.93.77h0c-3.183,2.15-3.285,8.28-.02,10.32l0.01,0.01,0.045,0.03a5.151,5.151,0,0,0,1.91.85,12.454,12.454,0,0,0,2.928.3h9.716v4.59h-0.736Zm-94.524-28.46H334.5a12.724,12.724,0,0,1,12.679,12.7v0.74h-6.007a7.711,7.711,0,0,0-7.68-7.43h-0.763v-6.01h0Zm-3.345,0h1.771v6.01H330.39a7.714,7.714,0,0,0-7.68,7.43H316.7v-0.74a12.723,12.723,0,0,1,12.68-12.7h0Zm1.771,28.46h-1.771a12.721,12.721,0,0,1-12.68-12.69v-0.75h6.007a7.713,7.713,0,0,0,7.68,7.43h0.764v6.01h0Zm16.024-13.44v0.75a12.722,12.722,0,0,1-12.679,12.69h-1.771v-6.01h0.763a7.711,7.711,0,0,0,7.68-7.43h6.007Zm96.969,13.44h-13v-4.59h12.332c4.745,0,4.893-3.84.432-3.84h-4.472a12.651,12.651,0,0,1-3.21-.39,9.579,9.579,0,0,1-2.732-1.15h0a6.13,6.13,0,0,1-2.18-2.18,6.005,6.005,0,0,1-.74-3,5.851,5.851,0,0,1,3.238-5.45l0.011-.01a9.037,9.037,0,0,1,2.4-.84,12.962,12.962,0,0,1,2.791-.28h13.141v4.59H439.018a5.462,5.462,0,0,0-2.815.56,1.583,1.583,0,0,0-.726,1.43,1.652,1.652,0,0,0,.191.82,1.9,1.9,0,0,0,.616.65,4.3,4.3,0,0,0,1.287.48,9.446,9.446,0,0,0,1.873.17h5.135c2.346,0,4.929.54,6.552,2.36C454.4,8073.63,452.471,8080.62,444.147,8080.62Zm12.22-21.78a4.235,4.235,0,1,1,4.228-4.23A4.236,4.236,0,0,1,456.367,8058.84Zm0-7.81a3.575,3.575,0,1,0,3.568,3.58A3.581,3.581,0,0,0,456.367,8051.03Zm-1.679,5.8v-4.26h1.886a2.411,2.411,0,0,1,.865.12,0.923,0.923,0,0,1,.473.4,1.2,1.2,0,0,1,.177.64,1.1,1.1,0,0,1-.293.77,1.55,1.55,0,0,1-.906.39,1.416,1.416,0,0,1,.34.21,2.839,2.839,0,0,1,.467.57l0.74,1.16h-0.708l-0.563-.89c-0.165-.25-0.3-0.45-0.406-0.58a1.372,1.372,0,0,0-.286-0.29,0.911,0.911,0,0,0-.257-0.11,2.089,2.089,0,0,0-.313-0.02h-0.653v1.89h-0.563Zm0.563-2.38h1.21a1.9,1.9,0,0,0,.6-0.08,0.619,0.619,0,0,0,.331-0.26,0.659,0.659,0,0,0,.113-0.38,0.61,0.61,0,0,0-.219-0.49,0.971,0.971,0,0,0-.692-0.2h-1.346v1.41Z" transform="translate(-160.406 -8050.38)"/>
  <path id="形状_2" data-name="形状 2" class="cls-2" d="M331.941,8064a2.39,2.39,0,1,1-2.39,2.39A2.39,2.39,0,0,1,331.941,8064Z" transform="translate(-160.406 -8050.38)"/>
</svg>
